<svg width="640" height="480" xmlns="http://www.w3.org/2000/svg" xmlns:svg="http://www.w3.org/2000/svg">
 <!-- Created with SVG-edit - https://github.com/SVG-Edit/svgedit-->
 <g class="layer">
  <title>Layer 1</title>
  <path d="m34.9,54.15l7.64,0l2.36,-7.26l2.36,7.26l7.64,0l-6.18,4.49l2.36,7.26l-6.18,-4.49l-6.18,4.49l2.36,-7.26l-6.18,-4.49z" fill="#ffff56" id="svg_3" stroke="#bfbf00" transform="matrix(1 0 0 1 0 0) rotate(5.30311 44.9 56.3972)"/>
  <path d="m297.95,28.28l0.4,0l0.12,-0.38l0.12,0.38l0.4,0l-0.33,0.24l0.12,0.38l-0.33,-0.24l-0.33,0.24l0.12,-0.38l-0.33,-0.24l0.04,0z" fill="#ffff56" id="svg_4" stroke="#ffffaa"/>
  <path d="m551.5,99.76l7.64,0l2.36,-7.26l2.36,7.26l7.64,0l-6.18,4.49l2.36,7.26l-6.18,-4.49l-6.18,4.49l2.36,-7.26l-6.18,-4.49z" fill="#ffff56" id="svg_5" stroke="#bfbf00" transform="matrix(1 0 0 1 0 0) rotate(-21.6309 561.5 102)"/>
  <path d="m77.87,425.47l7.64,0l2.36,-7.26l2.36,7.26l7.64,0l-6.18,4.49l2.36,7.26l-6.18,-4.49l-6.18,4.49l2.36,-7.26l-6.18,-4.49z" fill="#ffff56" id="svg_7" stroke="#bfbf00" transform="matrix(1 0 0 1 0 0)"/>
  <path d="m301.23,50.95l7,0l2.16,-6.65l2.16,6.65l7,0l-5.67,4.11l2.16,6.65l-5.67,-4.11l-5.67,4.11l2.16,-6.65l-5.67,-4.11l0.04,0z" fill="#ffff56" id="svg_8" stroke="#bfbf00" transform="matrix(1 0 0 1 0 0)"/>
  <path d="m76.62,213.36l7.64,0l2.36,-7.26l2.36,7.26l7.64,0l-6.18,4.49l2.36,7.26l-6.18,-4.49l-6.18,4.49l2.36,-7.26l-6.18,-4.49z" fill="#ffff56" id="svg_9" stroke="#bfbf00" transform="matrix(0.975789 -0.218712 0.218712 0.975789 -24.1803 33.5608)"/>
  <path d="m503.5,258.76l7.64,0l2.36,-7.26l2.36,7.26l7.64,0l-6.18,4.49l2.36,7.26l-6.18,-4.49l-6.18,4.49l2.36,-7.26l-6.18,-4.49z" fill="#ffff56" id="svg_10" stroke="#bfbf00" transform="matrix(1 0 0 1 0 0)"/>
  <path d="m558.5,433.76l7.64,0l2.36,-7.26l2.36,7.26l7.64,0l-6.18,4.49l2.36,7.26l-6.18,-4.49l-6.18,4.49l2.36,-7.26l-6.18,-4.49z" fill="#ffff56" id="svg_11" stroke="#bfbf00"/>
  <path d="m208.14,368.56l0,-217.75l0,0c0,-9.25 7.5,-16.75 16.75,-16.75l201,0c9.25,0 16.75,7.5 16.75,16.75c0,9.25 -7.5,16.75 -16.75,16.75l-16.75,0l0,217.75c0,9.25 -7.5,16.75 -16.75,16.75l-201,0l0,0c-9.25,0 -16.75,-7.5 -16.75,-16.75c0,-9.25 7.5,-16.75 16.75,-16.75l16.75,0zm33.5,-234.5l0,0c9.25,0 16.75,7.5 16.75,16.75c0,9.25 -7.5,16.75 -16.75,16.75c-4.63,0 -8.37,-3.75 -8.37,-8.37c0,-4.63 3.75,-8.37 8.37,-8.37l16.75,0m167.5,16.75l-184.25,0m-33.5,201l0,0c4.63,0 8.37,3.75 8.37,8.37c0,4.63 -3.75,8.37 -8.37,8.37l16.75,0m-16.75,16.75l0,0c9.25,0 16.75,-7.5 16.75,-16.75l0,-16.75" fill="#7f3f00" id="svg_16" stroke="#bf5f00"/>
 </g>
</svg>